<mxfile host="65bd71144e">
    <diagram id="rebtU5tXmGY_HIzhLKTE" name="认识Verilog">
        <mxGraphModel dx="696" dy="571" grid="1" gridSize="10" guides="1" tooltips="1" connect="1" arrows="1" fold="1" page="1" pageScale="1" pageWidth="1169" pageHeight="827" background="#ffffff" math="0" shadow="0">
            <root>
                <mxCell id="0"/>
                <mxCell id="1" parent="0"/>
                <mxCell id="7ks481zEIm87HgxM2ex8-72" value="" style="group" parent="1" vertex="1" connectable="0">
                    <mxGeometry x="530" y="360" width="360" height="410" as="geometry"/>
                </mxCell>
                <mxCell id="7ks481zEIm87HgxM2ex8-44" style="edgeStyle=orthogonalEdgeStyle;rounded=0;html=1;exitX=0;exitY=0.5;exitDx=0;exitDy=0;strokeColor=#000000;strokeWidth=3;fontSize=17;fontColor=#000000;startArrow=none;startFill=0;endArrow=none;endFill=0;" parent="7ks481zEIm87HgxM2ex8-72" source="7ks481zEIm87HgxM2ex8-47" edge="1">
                    <mxGeometry relative="1" as="geometry">
                        <mxPoint x="80" y="30" as="targetPoint"/>
                    </mxGeometry>
                </mxCell>
                <mxCell id="7ks481zEIm87HgxM2ex8-45" style="edgeStyle=orthogonalEdgeStyle;rounded=0;html=1;exitX=0.25;exitY=1;exitDx=0;exitDy=0;strokeColor=#000000;strokeWidth=3;fontSize=17;fontColor=#000000;startArrow=none;startFill=0;endArrow=none;endFill=0;" parent="7ks481zEIm87HgxM2ex8-72" source="7ks481zEIm87HgxM2ex8-47" edge="1">
                    <mxGeometry relative="1" as="geometry">
                        <mxPoint y="119.90476190476193" as="targetPoint"/>
                    </mxGeometry>
                </mxCell>
                <mxCell id="7ks481zEIm87HgxM2ex8-46" style="edgeStyle=orthogonalEdgeStyle;rounded=0;html=1;exitX=0.75;exitY=1;exitDx=0;exitDy=0;strokeColor=#000000;strokeWidth=3;fontSize=17;fontColor=#000000;startArrow=none;startFill=0;endArrow=none;endFill=0;" parent="7ks481zEIm87HgxM2ex8-72" source="7ks481zEIm87HgxM2ex8-47" edge="1">
                    <mxGeometry relative="1" as="geometry">
                        <mxPoint y="179.90476190476193" as="targetPoint"/>
                    </mxGeometry>
                </mxCell>
                <mxCell id="7ks481zEIm87HgxM2ex8-47" value="MUX" style="shape=trapezoid;perimeter=trapezoidPerimeter;whiteSpace=wrap;html=1;fixedSize=1;labelBackgroundColor=none;strokeColor=#000000;strokeWidth=3;fontSize=17;fontColor=#000000;fillColor=none;rotation=90;" parent="7ks481zEIm87HgxM2ex8-72" vertex="1">
                    <mxGeometry x="20" y="120" width="120" height="60" as="geometry"/>
                </mxCell>
                <mxCell id="7ks481zEIm87HgxM2ex8-48" value="0" style="text;strokeColor=none;align=center;fillColor=none;html=1;verticalAlign=middle;whiteSpace=wrap;rounded=0;labelBackgroundColor=none;strokeWidth=3;fontSize=17;fontColor=#000000;" parent="7ks481zEIm87HgxM2ex8-72" vertex="1">
                    <mxGeometry x="40" y="106" width="40" height="30" as="geometry"/>
                </mxCell>
                <mxCell id="7ks481zEIm87HgxM2ex8-49" value="1" style="text;strokeColor=none;align=center;fillColor=none;html=1;verticalAlign=middle;whiteSpace=wrap;rounded=0;labelBackgroundColor=none;strokeWidth=3;fontSize=17;fontColor=#000000;" parent="7ks481zEIm87HgxM2ex8-72" vertex="1">
                    <mxGeometry x="40" y="166" width="40" height="30" as="geometry"/>
                </mxCell>
                <mxCell id="7ks481zEIm87HgxM2ex8-50" value="W0" style="text;strokeColor=none;align=center;fillColor=none;html=1;verticalAlign=middle;whiteSpace=wrap;rounded=0;labelBackgroundColor=none;strokeWidth=3;fontSize=17;fontColor=#000000;" parent="7ks481zEIm87HgxM2ex8-72" vertex="1">
                    <mxGeometry y="90" width="40" height="30" as="geometry"/>
                </mxCell>
                <mxCell id="7ks481zEIm87HgxM2ex8-51" value="W1" style="text;strokeColor=none;align=center;fillColor=none;html=1;verticalAlign=middle;whiteSpace=wrap;rounded=0;labelBackgroundColor=none;strokeWidth=3;fontSize=17;fontColor=#000000;" parent="7ks481zEIm87HgxM2ex8-72" vertex="1">
                    <mxGeometry x="2" y="151" width="40" height="30" as="geometry"/>
                </mxCell>
                <mxCell id="7ks481zEIm87HgxM2ex8-52" value="S0" style="text;strokeColor=none;align=center;fillColor=none;html=1;verticalAlign=middle;whiteSpace=wrap;rounded=0;labelBackgroundColor=none;strokeWidth=3;fontSize=17;fontColor=#000000;" parent="7ks481zEIm87HgxM2ex8-72" vertex="1">
                    <mxGeometry x="60" width="40" height="30" as="geometry"/>
                </mxCell>
                <mxCell id="7ks481zEIm87HgxM2ex8-53" value="out0" style="text;strokeColor=none;align=center;fillColor=none;html=1;verticalAlign=middle;whiteSpace=wrap;rounded=0;labelBackgroundColor=none;strokeWidth=3;fontSize=17;fontColor=#000000;" parent="7ks481zEIm87HgxM2ex8-72" vertex="1">
                    <mxGeometry x="130" y="121" width="40" height="30" as="geometry"/>
                </mxCell>
                <mxCell id="7ks481zEIm87HgxM2ex8-54" style="edgeStyle=orthogonalEdgeStyle;rounded=0;html=1;exitX=0;exitY=0.5;exitDx=0;exitDy=0;strokeColor=#000000;strokeWidth=3;fontSize=17;fontColor=#000000;startArrow=none;startFill=0;endArrow=oval;endFill=1;" parent="7ks481zEIm87HgxM2ex8-72" source="7ks481zEIm87HgxM2ex8-57" edge="1">
                    <mxGeometry relative="1" as="geometry">
                        <mxPoint x="80" y="58" as="targetPoint"/>
                        <Array as="points">
                            <mxPoint x="80" y="270"/>
                            <mxPoint x="120" y="270"/>
                            <mxPoint x="120" y="58"/>
                        </Array>
                    </mxGeometry>
                </mxCell>
                <mxCell id="7ks481zEIm87HgxM2ex8-55" style="edgeStyle=orthogonalEdgeStyle;rounded=0;html=1;exitX=0.25;exitY=1;exitDx=0;exitDy=0;strokeColor=#000000;strokeWidth=3;fontSize=17;fontColor=#000000;startArrow=none;startFill=0;endArrow=none;endFill=0;" parent="7ks481zEIm87HgxM2ex8-72" source="7ks481zEIm87HgxM2ex8-57" edge="1">
                    <mxGeometry relative="1" as="geometry">
                        <mxPoint y="319.9047619047619" as="targetPoint"/>
                    </mxGeometry>
                </mxCell>
                <mxCell id="7ks481zEIm87HgxM2ex8-56" style="edgeStyle=orthogonalEdgeStyle;rounded=0;html=1;exitX=0.75;exitY=1;exitDx=0;exitDy=0;strokeColor=#000000;strokeWidth=3;fontSize=17;fontColor=#000000;startArrow=none;startFill=0;endArrow=none;endFill=0;" parent="7ks481zEIm87HgxM2ex8-72" source="7ks481zEIm87HgxM2ex8-57" edge="1">
                    <mxGeometry relative="1" as="geometry">
                        <mxPoint y="379.9047619047619" as="targetPoint"/>
                    </mxGeometry>
                </mxCell>
                <mxCell id="7ks481zEIm87HgxM2ex8-57" value="MUX" style="shape=trapezoid;perimeter=trapezoidPerimeter;whiteSpace=wrap;html=1;fixedSize=1;labelBackgroundColor=none;strokeColor=#000000;strokeWidth=3;fontSize=17;fontColor=#000000;fillColor=none;rotation=90;" parent="7ks481zEIm87HgxM2ex8-72" vertex="1">
                    <mxGeometry x="20" y="320" width="120" height="60" as="geometry"/>
                </mxCell>
                <mxCell id="7ks481zEIm87HgxM2ex8-58" value="0" style="text;strokeColor=none;align=center;fillColor=none;html=1;verticalAlign=middle;whiteSpace=wrap;rounded=0;labelBackgroundColor=none;strokeWidth=3;fontSize=17;fontColor=#000000;" parent="7ks481zEIm87HgxM2ex8-72" vertex="1">
                    <mxGeometry x="40" y="306" width="40" height="30" as="geometry"/>
                </mxCell>
                <mxCell id="7ks481zEIm87HgxM2ex8-59" value="1" style="text;strokeColor=none;align=center;fillColor=none;html=1;verticalAlign=middle;whiteSpace=wrap;rounded=0;labelBackgroundColor=none;strokeWidth=3;fontSize=17;fontColor=#000000;" parent="7ks481zEIm87HgxM2ex8-72" vertex="1">
                    <mxGeometry x="40" y="366" width="40" height="30" as="geometry"/>
                </mxCell>
                <mxCell id="7ks481zEIm87HgxM2ex8-60" value="W2" style="text;strokeColor=none;align=center;fillColor=none;html=1;verticalAlign=middle;whiteSpace=wrap;rounded=0;labelBackgroundColor=none;strokeWidth=3;fontSize=17;fontColor=#000000;" parent="7ks481zEIm87HgxM2ex8-72" vertex="1">
                    <mxGeometry y="290" width="40" height="30" as="geometry"/>
                </mxCell>
                <mxCell id="7ks481zEIm87HgxM2ex8-61" value="W3" style="text;strokeColor=none;align=center;fillColor=none;html=1;verticalAlign=middle;whiteSpace=wrap;rounded=0;labelBackgroundColor=none;strokeWidth=3;fontSize=17;fontColor=#000000;" parent="7ks481zEIm87HgxM2ex8-72" vertex="1">
                    <mxGeometry x="2" y="351" width="40" height="30" as="geometry"/>
                </mxCell>
                <mxCell id="7ks481zEIm87HgxM2ex8-62" value="out1" style="text;strokeColor=none;align=center;fillColor=none;html=1;verticalAlign=middle;whiteSpace=wrap;rounded=0;labelBackgroundColor=none;strokeWidth=3;fontSize=17;fontColor=#000000;" parent="7ks481zEIm87HgxM2ex8-72" vertex="1">
                    <mxGeometry x="130" y="320" width="40" height="30" as="geometry"/>
                </mxCell>
                <mxCell id="7ks481zEIm87HgxM2ex8-63" style="edgeStyle=orthogonalEdgeStyle;rounded=0;html=1;exitX=0;exitY=0.5;exitDx=0;exitDy=0;strokeColor=#000000;strokeWidth=3;fontSize=17;fontColor=#000000;startArrow=none;startFill=0;endArrow=none;endFill=0;" parent="7ks481zEIm87HgxM2ex8-72" source="7ks481zEIm87HgxM2ex8-67" edge="1">
                    <mxGeometry relative="1" as="geometry">
                        <mxPoint x="140" y="30" as="targetPoint"/>
                        <Array as="points">
                            <mxPoint x="270" y="110"/>
                            <mxPoint x="140" y="110"/>
                        </Array>
                    </mxGeometry>
                </mxCell>
                <mxCell id="7ks481zEIm87HgxM2ex8-64" style="edgeStyle=orthogonalEdgeStyle;rounded=0;html=1;exitX=0.5;exitY=0;exitDx=0;exitDy=0;strokeColor=#000000;strokeWidth=3;fontSize=17;fontColor=#000000;startArrow=none;startFill=0;endArrow=none;endFill=0;" parent="7ks481zEIm87HgxM2ex8-72" source="7ks481zEIm87HgxM2ex8-67" edge="1">
                    <mxGeometry relative="1" as="geometry">
                        <mxPoint x="340" y="250.90476190476193" as="targetPoint"/>
                    </mxGeometry>
                </mxCell>
                <mxCell id="7ks481zEIm87HgxM2ex8-65" style="edgeStyle=orthogonalEdgeStyle;rounded=0;html=1;exitX=0.25;exitY=1;exitDx=0;exitDy=0;strokeColor=#000000;strokeWidth=3;fontSize=17;fontColor=#000000;startArrow=none;startFill=0;endArrow=none;endFill=0;entryX=0.5;entryY=0;entryDx=0;entryDy=0;" parent="7ks481zEIm87HgxM2ex8-72" source="7ks481zEIm87HgxM2ex8-67" target="7ks481zEIm87HgxM2ex8-47" edge="1">
                    <mxGeometry relative="1" as="geometry">
                        <mxPoint x="190" y="220.90476190476193" as="targetPoint"/>
                    </mxGeometry>
                </mxCell>
                <mxCell id="7ks481zEIm87HgxM2ex8-66" style="edgeStyle=orthogonalEdgeStyle;rounded=0;html=1;exitX=0.75;exitY=1;exitDx=0;exitDy=0;strokeColor=#000000;strokeWidth=3;fontSize=17;fontColor=#000000;startArrow=none;startFill=0;endArrow=none;endFill=0;entryX=0.5;entryY=0;entryDx=0;entryDy=0;" parent="7ks481zEIm87HgxM2ex8-72" source="7ks481zEIm87HgxM2ex8-67" target="7ks481zEIm87HgxM2ex8-57" edge="1">
                    <mxGeometry relative="1" as="geometry">
                        <mxPoint x="190" y="280.9047619047619" as="targetPoint"/>
                    </mxGeometry>
                </mxCell>
                <mxCell id="7ks481zEIm87HgxM2ex8-67" value="MUX" style="shape=trapezoid;perimeter=trapezoidPerimeter;whiteSpace=wrap;html=1;fixedSize=1;labelBackgroundColor=none;strokeColor=#000000;strokeWidth=3;fontSize=17;fontColor=#000000;fillColor=none;rotation=90;" parent="7ks481zEIm87HgxM2ex8-72" vertex="1">
                    <mxGeometry x="210" y="221" width="120" height="60" as="geometry"/>
                </mxCell>
                <mxCell id="7ks481zEIm87HgxM2ex8-68" value="0" style="text;strokeColor=none;align=center;fillColor=none;html=1;verticalAlign=middle;whiteSpace=wrap;rounded=0;labelBackgroundColor=none;strokeWidth=3;fontSize=17;fontColor=#000000;" parent="7ks481zEIm87HgxM2ex8-72" vertex="1">
                    <mxGeometry x="230" y="207" width="40" height="30" as="geometry"/>
                </mxCell>
                <mxCell id="7ks481zEIm87HgxM2ex8-69" value="1" style="text;strokeColor=none;align=center;fillColor=none;html=1;verticalAlign=middle;whiteSpace=wrap;rounded=0;labelBackgroundColor=none;strokeWidth=3;fontSize=17;fontColor=#000000;" parent="7ks481zEIm87HgxM2ex8-72" vertex="1">
                    <mxGeometry x="230" y="267" width="40" height="30" as="geometry"/>
                </mxCell>
                <mxCell id="7ks481zEIm87HgxM2ex8-70" value="S1" style="text;strokeColor=none;align=center;fillColor=none;html=1;verticalAlign=middle;whiteSpace=wrap;rounded=0;labelBackgroundColor=none;strokeWidth=3;fontSize=17;fontColor=#000000;" parent="7ks481zEIm87HgxM2ex8-72" vertex="1">
                    <mxGeometry x="120" width="40" height="30" as="geometry"/>
                </mxCell>
                <mxCell id="7ks481zEIm87HgxM2ex8-71" value="out" style="text;strokeColor=none;align=center;fillColor=none;html=1;verticalAlign=middle;whiteSpace=wrap;rounded=0;labelBackgroundColor=none;strokeWidth=3;fontSize=17;fontColor=#000000;" parent="7ks481zEIm87HgxM2ex8-72" vertex="1">
                    <mxGeometry x="320" y="221" width="40" height="30" as="geometry"/>
                </mxCell>
                <mxCell id="7ks481zEIm87HgxM2ex8-74" value="" style="group" parent="1" vertex="1" connectable="0">
                    <mxGeometry x="30" y="414" width="480" height="380" as="geometry"/>
                </mxCell>
                <mxCell id="QMG38J2CW0rPUgtdJ5ai-17" style="edgeStyle=orthogonalEdgeStyle;rounded=0;html=1;exitX=0;exitY=0.75;exitDx=0;exitDy=0;exitPerimeter=0;strokeColor=#000000;strokeWidth=3;endArrow=none;endFill=0;" parent="7ks481zEIm87HgxM2ex8-74" source="QMG38J2CW0rPUgtdJ5ai-18" edge="1">
                    <mxGeometry relative="1" as="geometry">
                        <mxPoint x="60" y="235" as="targetPoint"/>
                    </mxGeometry>
                </mxCell>
                <mxCell id="QMG38J2CW0rPUgtdJ5ai-18" value="AND" style="verticalLabelPosition=middle;shadow=0;dashed=0;align=center;html=1;verticalAlign=middle;shape=mxgraph.electrical.logic_gates.logic_gate;operation=and;fillColor=none;strokeColor=#000000;strokeWidth=3;fontColor=#000000;fontSize=20;fontStyle=1;labelPosition=center;" parent="7ks481zEIm87HgxM2ex8-74" vertex="1">
                    <mxGeometry x="190" y="190" width="100" height="60" as="geometry"/>
                </mxCell>
                <mxCell id="QMG38J2CW0rPUgtdJ5ai-20" style="edgeStyle=orthogonalEdgeStyle;rounded=0;html=1;exitX=0;exitY=0.25;exitDx=0;exitDy=0;exitPerimeter=0;strokeColor=#000000;strokeWidth=3;endArrow=none;endFill=0;" parent="7ks481zEIm87HgxM2ex8-74" source="QMG38J2CW0rPUgtdJ5ai-22" edge="1">
                    <mxGeometry relative="1" as="geometry">
                        <mxPoint x="60" y="335" as="targetPoint"/>
                    </mxGeometry>
                </mxCell>
                <mxCell id="QMG38J2CW0rPUgtdJ5ai-21" style="edgeStyle=orthogonalEdgeStyle;rounded=0;html=1;exitX=0;exitY=0.75;exitDx=0;exitDy=0;exitPerimeter=0;strokeColor=#000000;strokeWidth=3;endArrow=oval;endFill=1;" parent="7ks481zEIm87HgxM2ex8-74" source="QMG38J2CW0rPUgtdJ5ai-22" edge="1">
                    <mxGeometry relative="1" as="geometry">
                        <mxPoint x="140" y="50" as="targetPoint"/>
                        <Array as="points">
                            <mxPoint x="90" y="365"/>
                            <mxPoint x="90" y="50"/>
                        </Array>
                    </mxGeometry>
                </mxCell>
                <mxCell id="QMG38J2CW0rPUgtdJ5ai-22" value="AND" style="verticalLabelPosition=middle;shadow=0;dashed=0;align=center;html=1;verticalAlign=middle;shape=mxgraph.electrical.logic_gates.logic_gate;operation=and;fillColor=none;strokeColor=#000000;strokeWidth=3;fontSize=20;fontStyle=1;fontColor=#000000;labelPosition=center;" parent="7ks481zEIm87HgxM2ex8-74" vertex="1">
                    <mxGeometry x="190" y="320" width="100" height="60" as="geometry"/>
                </mxCell>
                <mxCell id="QMG38J2CW0rPUgtdJ5ai-23" value="&lt;font color=&quot;#000000&quot; style=&quot;font-size: 20px;&quot;&gt;OR&lt;/font&gt;" style="verticalLabelPosition=middle;shadow=0;dashed=0;align=center;html=1;verticalAlign=middle;shape=mxgraph.electrical.logic_gates.logic_gate;operation=or;strokeColor=#000000;strokeWidth=3;fillColor=none;fontStyle=1;fontSize=20;labelPosition=center;" parent="7ks481zEIm87HgxM2ex8-74" vertex="1">
                    <mxGeometry x="320" y="250" width="100" height="60" as="geometry"/>
                </mxCell>
                <mxCell id="QMG38J2CW0rPUgtdJ5ai-16" style="edgeStyle=orthogonalEdgeStyle;html=1;exitX=1;exitY=0.5;exitDx=0;exitDy=0;exitPerimeter=0;entryX=0;entryY=0.25;entryDx=0;entryDy=0;entryPerimeter=0;rounded=0;strokeColor=#000000;strokeWidth=3;endArrow=none;endFill=0;" parent="7ks481zEIm87HgxM2ex8-74" source="QMG38J2CW0rPUgtdJ5ai-18" target="QMG38J2CW0rPUgtdJ5ai-23" edge="1">
                    <mxGeometry relative="1" as="geometry"/>
                </mxCell>
                <mxCell id="QMG38J2CW0rPUgtdJ5ai-19" style="edgeStyle=orthogonalEdgeStyle;rounded=0;html=1;exitX=1;exitY=0.5;exitDx=0;exitDy=0;exitPerimeter=0;entryX=0;entryY=0.75;entryDx=0;entryDy=0;entryPerimeter=0;strokeColor=#000000;strokeWidth=3;endArrow=none;endFill=0;" parent="7ks481zEIm87HgxM2ex8-74" source="QMG38J2CW0rPUgtdJ5ai-22" target="QMG38J2CW0rPUgtdJ5ai-23" edge="1">
                    <mxGeometry relative="1" as="geometry"/>
                </mxCell>
                <mxCell id="QMG38J2CW0rPUgtdJ5ai-24" style="edgeStyle=orthogonalEdgeStyle;rounded=0;html=1;exitX=1;exitY=0.5;exitDx=0;exitDy=0;exitPerimeter=0;entryX=0;entryY=0.25;entryDx=0;entryDy=0;entryPerimeter=0;strokeColor=#000000;strokeWidth=3;endArrow=none;endFill=0;" parent="7ks481zEIm87HgxM2ex8-74" source="QMG38J2CW0rPUgtdJ5ai-26" target="QMG38J2CW0rPUgtdJ5ai-18" edge="1">
                    <mxGeometry relative="1" as="geometry"/>
                </mxCell>
                <mxCell id="QMG38J2CW0rPUgtdJ5ai-25" style="edgeStyle=orthogonalEdgeStyle;rounded=0;html=1;exitX=0;exitY=0.5;exitDx=0;exitDy=0;exitPerimeter=0;strokeColor=#000000;strokeWidth=3;endArrow=none;endFill=0;" parent="7ks481zEIm87HgxM2ex8-74" source="QMG38J2CW0rPUgtdJ5ai-26" edge="1">
                    <mxGeometry relative="1" as="geometry">
                        <mxPoint x="140" y="10" as="targetPoint"/>
                    </mxGeometry>
                </mxCell>
                <mxCell id="QMG38J2CW0rPUgtdJ5ai-26" value="" style="verticalLabelPosition=middle;shadow=0;dashed=0;align=center;html=1;verticalAlign=middle;shape=mxgraph.electrical.logic_gates.inverter_2;strokeColor=#000000;strokeWidth=3;fillColor=none;rotation=90;fontColor=#000000;labelPosition=center;fontStyle=1;fontSize=15;" parent="7ks481zEIm87HgxM2ex8-74" vertex="1">
                    <mxGeometry x="90" y="100" width="100" height="60" as="geometry"/>
                </mxCell>
                <mxCell id="QMG38J2CW0rPUgtdJ5ai-27" value="&lt;font color=&quot;#000000&quot; style=&quot;font-size: 24px;&quot;&gt;S&lt;/font&gt;" style="text;strokeColor=none;align=center;fillColor=none;html=1;verticalAlign=middle;whiteSpace=wrap;rounded=0;strokeWidth=3;fontStyle=1;fontSize=24;" parent="7ks481zEIm87HgxM2ex8-74" vertex="1">
                    <mxGeometry x="130" width="60" height="30" as="geometry"/>
                </mxCell>
                <mxCell id="QMG38J2CW0rPUgtdJ5ai-28" value="&lt;font color=&quot;#000000&quot;&gt;in0&lt;/font&gt;" style="text;strokeColor=none;align=center;fillColor=none;html=1;verticalAlign=middle;whiteSpace=wrap;rounded=0;strokeWidth=3;fontStyle=1;fontSize=24;" parent="7ks481zEIm87HgxM2ex8-74" vertex="1">
                    <mxGeometry y="220" width="60" height="30" as="geometry"/>
                </mxCell>
                <mxCell id="QMG38J2CW0rPUgtdJ5ai-29" value="&lt;font color=&quot;#000000&quot;&gt;in1&lt;/font&gt;" style="text;strokeColor=none;align=center;fillColor=none;html=1;verticalAlign=middle;whiteSpace=wrap;rounded=0;strokeWidth=3;fontStyle=1;fontSize=24;" parent="7ks481zEIm87HgxM2ex8-74" vertex="1">
                    <mxGeometry y="320" width="60" height="30" as="geometry"/>
                </mxCell>
                <mxCell id="QMG38J2CW0rPUgtdJ5ai-30" value="&lt;font color=&quot;#000000&quot;&gt;out&lt;/font&gt;" style="text;strokeColor=none;align=center;fillColor=none;html=1;verticalAlign=middle;whiteSpace=wrap;rounded=0;strokeWidth=3;fontStyle=1;fontSize=24;" parent="7ks481zEIm87HgxM2ex8-74" vertex="1">
                    <mxGeometry x="420" y="265" width="60" height="30" as="geometry"/>
                </mxCell>
                <mxCell id="QMG38J2CW0rPUgtdJ5ai-31" value="&lt;font color=&quot;#000000&quot; style=&quot;font-size: 17px;&quot;&gt;NOT&lt;/font&gt;" style="text;strokeColor=none;align=center;fillColor=none;html=1;verticalAlign=middle;whiteSpace=wrap;rounded=0;strokeWidth=3;fontStyle=1;fontSize=17;" parent="7ks481zEIm87HgxM2ex8-74" vertex="1">
                    <mxGeometry x="110" y="93" width="60" height="30" as="geometry"/>
                </mxCell>
                <mxCell id="7ks481zEIm87HgxM2ex8-75" value="" style="group" parent="1" vertex="1" connectable="0">
                    <mxGeometry x="370" y="20" width="170" height="160" as="geometry"/>
                </mxCell>
                <mxCell id="QwQY3PDaorP3m9qOKkc0-16" style="edgeStyle=orthogonalEdgeStyle;rounded=0;html=1;exitX=0;exitY=0.5;exitDx=0;exitDy=0;strokeColor=#000000;strokeWidth=3;fontSize=17;fontColor=#000000;startArrow=none;startFill=0;endArrow=none;endFill=0;" parent="7ks481zEIm87HgxM2ex8-75" source="QwQY3PDaorP3m9qOKkc0-20" edge="1">
                    <mxGeometry relative="1" as="geometry">
                        <mxPoint x="79.80952380952385" as="targetPoint"/>
                    </mxGeometry>
                </mxCell>
                <mxCell id="QwQY3PDaorP3m9qOKkc0-17" style="edgeStyle=orthogonalEdgeStyle;rounded=0;html=1;exitX=0.5;exitY=0;exitDx=0;exitDy=0;strokeColor=#000000;strokeWidth=3;fontSize=17;fontColor=#000000;startArrow=none;startFill=0;endArrow=none;endFill=0;" parent="7ks481zEIm87HgxM2ex8-75" source="QwQY3PDaorP3m9qOKkc0-20" edge="1">
                    <mxGeometry relative="1" as="geometry">
                        <mxPoint x="150" y="99.90476190476193" as="targetPoint"/>
                    </mxGeometry>
                </mxCell>
                <mxCell id="QwQY3PDaorP3m9qOKkc0-18" style="edgeStyle=orthogonalEdgeStyle;rounded=0;html=1;exitX=0.25;exitY=1;exitDx=0;exitDy=0;strokeColor=#000000;strokeWidth=3;fontSize=17;fontColor=#000000;startArrow=none;startFill=0;endArrow=none;endFill=0;" parent="7ks481zEIm87HgxM2ex8-75" source="QwQY3PDaorP3m9qOKkc0-20" edge="1">
                    <mxGeometry relative="1" as="geometry">
                        <mxPoint y="69.90476190476193" as="targetPoint"/>
                    </mxGeometry>
                </mxCell>
                <mxCell id="QwQY3PDaorP3m9qOKkc0-19" style="edgeStyle=orthogonalEdgeStyle;rounded=0;html=1;exitX=0.75;exitY=1;exitDx=0;exitDy=0;strokeColor=#000000;strokeWidth=3;fontSize=17;fontColor=#000000;startArrow=none;startFill=0;endArrow=none;endFill=0;" parent="7ks481zEIm87HgxM2ex8-75" source="QwQY3PDaorP3m9qOKkc0-20" edge="1">
                    <mxGeometry relative="1" as="geometry">
                        <mxPoint y="129.90476190476193" as="targetPoint"/>
                    </mxGeometry>
                </mxCell>
                <mxCell id="QwQY3PDaorP3m9qOKkc0-20" value="MUX" style="shape=trapezoid;perimeter=trapezoidPerimeter;whiteSpace=wrap;html=1;fixedSize=1;labelBackgroundColor=none;strokeColor=#000000;strokeWidth=3;fontSize=17;fontColor=#000000;fillColor=none;rotation=90;" parent="7ks481zEIm87HgxM2ex8-75" vertex="1">
                    <mxGeometry x="20" y="70" width="120" height="60" as="geometry"/>
                </mxCell>
                <mxCell id="QwQY3PDaorP3m9qOKkc0-21" value="0" style="text;strokeColor=none;align=center;fillColor=none;html=1;verticalAlign=middle;whiteSpace=wrap;rounded=0;labelBackgroundColor=none;strokeWidth=3;fontSize=17;fontColor=#000000;" parent="7ks481zEIm87HgxM2ex8-75" vertex="1">
                    <mxGeometry x="40" y="56" width="40" height="30" as="geometry"/>
                </mxCell>
                <mxCell id="QwQY3PDaorP3m9qOKkc0-22" value="1" style="text;strokeColor=none;align=center;fillColor=none;html=1;verticalAlign=middle;whiteSpace=wrap;rounded=0;labelBackgroundColor=none;strokeWidth=3;fontSize=17;fontColor=#000000;" parent="7ks481zEIm87HgxM2ex8-75" vertex="1">
                    <mxGeometry x="40" y="116" width="40" height="30" as="geometry"/>
                </mxCell>
                <mxCell id="QwQY3PDaorP3m9qOKkc0-23" value="in0" style="text;strokeColor=none;align=center;fillColor=none;html=1;verticalAlign=middle;whiteSpace=wrap;rounded=0;labelBackgroundColor=none;strokeWidth=3;fontSize=17;fontColor=#000000;" parent="7ks481zEIm87HgxM2ex8-75" vertex="1">
                    <mxGeometry y="40" width="40" height="30" as="geometry"/>
                </mxCell>
                <mxCell id="QwQY3PDaorP3m9qOKkc0-24" value="in1" style="text;strokeColor=none;align=center;fillColor=none;html=1;verticalAlign=middle;whiteSpace=wrap;rounded=0;labelBackgroundColor=none;strokeWidth=3;fontSize=17;fontColor=#000000;" parent="7ks481zEIm87HgxM2ex8-75" vertex="1">
                    <mxGeometry x="2" y="101" width="40" height="30" as="geometry"/>
                </mxCell>
                <mxCell id="QwQY3PDaorP3m9qOKkc0-25" value="s" style="text;strokeColor=none;align=center;fillColor=none;html=1;verticalAlign=middle;whiteSpace=wrap;rounded=0;labelBackgroundColor=none;strokeWidth=3;fontSize=17;fontColor=#000000;" parent="7ks481zEIm87HgxM2ex8-75" vertex="1">
                    <mxGeometry x="80" width="40" height="30" as="geometry"/>
                </mxCell>
                <mxCell id="QwQY3PDaorP3m9qOKkc0-26" value="out" style="text;strokeColor=none;align=center;fillColor=none;html=1;verticalAlign=middle;whiteSpace=wrap;rounded=0;labelBackgroundColor=none;strokeWidth=3;fontSize=17;fontColor=#000000;" parent="7ks481zEIm87HgxM2ex8-75" vertex="1">
                    <mxGeometry x="130" y="71" width="40" height="30" as="geometry"/>
                </mxCell>
                <mxCell id="7ks481zEIm87HgxM2ex8-76" value="" style="group" parent="1" vertex="1" connectable="0">
                    <mxGeometry x="20" y="40" width="330" height="150" as="geometry"/>
                </mxCell>
                <mxCell id="2" value="&lt;font color=&quot;#000000&quot;&gt;and1&lt;/font&gt;" style="verticalLabelPosition=bottom;shadow=0;dashed=0;align=center;html=1;verticalAlign=top;shape=mxgraph.electrical.logic_gates.logic_gate;operation=and;fillColor=none;strokeColor=#000000;strokeWidth=3;fontStyle=1;movable=1;resizable=1;rotatable=1;deletable=1;editable=1;connectable=1;" parent="7ks481zEIm87HgxM2ex8-76" vertex="1">
                    <mxGeometry x="40" width="100" height="60" as="geometry"/>
                </mxCell>
                <mxCell id="3" value="&lt;font color=&quot;#000000&quot;&gt;and2&lt;/font&gt;" style="verticalLabelPosition=bottom;shadow=0;dashed=0;align=center;html=1;verticalAlign=top;shape=mxgraph.electrical.logic_gates.logic_gate;operation=and;fillColor=none;strokeColor=#000000;strokeWidth=3;fontStyle=1;movable=1;resizable=1;rotatable=1;deletable=1;editable=1;connectable=1;" parent="7ks481zEIm87HgxM2ex8-76" vertex="1">
                    <mxGeometry x="40" y="90" width="100" height="60" as="geometry"/>
                </mxCell>
                <mxCell id="4" value="and3" style="verticalLabelPosition=bottom;shadow=0;dashed=0;align=center;html=1;verticalAlign=top;shape=mxgraph.electrical.logic_gates.logic_gate;operation=and;fillColor=none;strokeColor=#000000;strokeWidth=3;fontColor=#000000;fontStyle=1;movable=1;resizable=1;rotatable=1;deletable=1;editable=1;connectable=1;" parent="7ks481zEIm87HgxM2ex8-76" vertex="1">
                    <mxGeometry x="190" y="43" width="100" height="60" as="geometry"/>
                </mxCell>
                <mxCell id="6" style="edgeStyle=orthogonalEdgeStyle;html=1;exitX=1;exitY=0.5;exitDx=0;exitDy=0;exitPerimeter=0;entryX=0;entryY=0.25;entryDx=0;entryDy=0;entryPerimeter=0;strokeColor=#000000;rounded=0;strokeWidth=3;endArrow=none;endFill=0;movable=1;resizable=1;rotatable=1;deletable=1;editable=1;connectable=1;" parent="7ks481zEIm87HgxM2ex8-76" source="2" target="4" edge="1">
                    <mxGeometry relative="1" as="geometry"/>
                </mxCell>
                <mxCell id="7" style="edgeStyle=orthogonalEdgeStyle;rounded=0;html=1;exitX=1;exitY=0.5;exitDx=0;exitDy=0;exitPerimeter=0;entryX=0;entryY=0.75;entryDx=0;entryDy=0;entryPerimeter=0;strokeColor=#000000;strokeWidth=3;endArrow=none;endFill=0;movable=1;resizable=1;rotatable=1;deletable=1;editable=1;connectable=1;" parent="7ks481zEIm87HgxM2ex8-76" source="3" target="4" edge="1">
                    <mxGeometry relative="1" as="geometry"/>
                </mxCell>
                <mxCell id="8" value="a" style="text;strokeColor=none;align=center;fillColor=none;html=1;verticalAlign=middle;whiteSpace=wrap;rounded=0;strokeWidth=3;fontColor=#000000;fontStyle=1;movable=1;resizable=1;rotatable=1;deletable=1;editable=1;connectable=1;" parent="7ks481zEIm87HgxM2ex8-76" vertex="1">
                    <mxGeometry width="60" height="30" as="geometry"/>
                </mxCell>
                <mxCell id="9" value="b" style="text;strokeColor=none;align=center;fillColor=none;html=1;verticalAlign=middle;whiteSpace=wrap;rounded=0;strokeWidth=3;fontColor=#000000;fontStyle=1;movable=1;resizable=1;rotatable=1;deletable=1;editable=1;connectable=1;" parent="7ks481zEIm87HgxM2ex8-76" vertex="1">
                    <mxGeometry y="30" width="60" height="30" as="geometry"/>
                </mxCell>
                <mxCell id="11" value="c" style="text;strokeColor=none;align=center;fillColor=none;html=1;verticalAlign=middle;whiteSpace=wrap;rounded=0;strokeWidth=3;fontColor=#000000;fontStyle=1;movable=1;resizable=1;rotatable=1;deletable=1;editable=1;connectable=1;" parent="7ks481zEIm87HgxM2ex8-76" vertex="1">
                    <mxGeometry y="90" width="60" height="30" as="geometry"/>
                </mxCell>
                <mxCell id="12" value="d" style="text;strokeColor=none;align=center;fillColor=none;html=1;verticalAlign=middle;whiteSpace=wrap;rounded=0;strokeWidth=3;fontColor=#000000;fontStyle=1;movable=1;resizable=1;rotatable=1;deletable=1;editable=1;connectable=1;" parent="7ks481zEIm87HgxM2ex8-76" vertex="1">
                    <mxGeometry y="120" width="60" height="30" as="geometry"/>
                </mxCell>
                <mxCell id="13" value="y1" style="text;strokeColor=none;align=center;fillColor=none;html=1;verticalAlign=middle;whiteSpace=wrap;rounded=0;strokeWidth=3;fontColor=#000000;fontStyle=1;movable=1;resizable=1;rotatable=1;deletable=1;editable=1;connectable=1;" parent="7ks481zEIm87HgxM2ex8-76" vertex="1">
                    <mxGeometry x="110" width="60" height="30" as="geometry"/>
                </mxCell>
                <mxCell id="15" value="y2" style="text;strokeColor=none;align=center;fillColor=none;html=1;verticalAlign=middle;whiteSpace=wrap;rounded=0;strokeWidth=3;fontColor=#000000;fontStyle=1;movable=1;resizable=1;rotatable=1;deletable=1;editable=1;connectable=1;" parent="7ks481zEIm87HgxM2ex8-76" vertex="1">
                    <mxGeometry x="110" y="90" width="60" height="30" as="geometry"/>
                </mxCell>
                <mxCell id="16" value="y" style="text;strokeColor=none;align=center;fillColor=none;html=1;verticalAlign=middle;whiteSpace=wrap;rounded=0;strokeWidth=3;fontColor=#000000;fontStyle=1;movable=1;resizable=1;rotatable=1;deletable=1;editable=1;connectable=1;" parent="7ks481zEIm87HgxM2ex8-76" vertex="1">
                    <mxGeometry x="270" y="57" width="60" height="30" as="geometry"/>
                </mxCell>
            </root>
        </mxGraphModel>
    </diagram>
    <diagram id="5C8ZGqh4Hf1FeQuMz4j9" name="全加器">
        <mxGraphModel dx="696" dy="571" grid="1" gridSize="10" guides="1" tooltips="1" connect="1" arrows="1" fold="1" page="1" pageScale="1" pageWidth="1169" pageHeight="827" background="#ffffff" math="0" shadow="0">
            <root>
                <mxCell id="0"/>
                <mxCell id="1" parent="0"/>
                <mxCell id="gzdv8FFXtKBTtcGOgYej-1" value="" style="group" parent="1" vertex="1" connectable="0">
                    <mxGeometry x="100" y="410" width="609" height="336" as="geometry"/>
                </mxCell>
                <mxCell id="gzdv8FFXtKBTtcGOgYej-2" style="edgeStyle=orthogonalEdgeStyle;rounded=0;html=1;exitX=0;exitY=0.25;exitDx=0;exitDy=0;exitPerimeter=0;strokeWidth=3;endArrow=none;endFill=0;" parent="gzdv8FFXtKBTtcGOgYej-1" source="gzdv8FFXtKBTtcGOgYej-3" edge="1">
                    <mxGeometry relative="1" as="geometry">
                        <mxPoint x="52" y="134.75862068965523" as="targetPoint"/>
                    </mxGeometry>
                </mxCell>
                <mxCell id="gzdv8FFXtKBTtcGOgYej-3" value="XOR" style="verticalLabelPosition=middle;shadow=0;dashed=0;align=center;html=1;verticalAlign=middle;shape=mxgraph.electrical.logic_gates.logic_gate;operation=xor;labelBackgroundColor=none;strokeColor=#000000;strokeWidth=3;fontColor=#000000;fillColor=none;fontStyle=1;labelPosition=center;" parent="gzdv8FFXtKBTtcGOgYej-1" vertex="1">
                    <mxGeometry x="122" y="120" width="100" height="60" as="geometry"/>
                </mxCell>
                <mxCell id="gzdv8FFXtKBTtcGOgYej-4" style="edgeStyle=orthogonalEdgeStyle;rounded=0;html=1;exitX=0;exitY=0.25;exitDx=0;exitDy=0;exitPerimeter=0;strokeWidth=3;endArrow=oval;endFill=1;" parent="gzdv8FFXtKBTtcGOgYej-1" source="gzdv8FFXtKBTtcGOgYej-6" edge="1">
                    <mxGeometry relative="1" as="geometry">
                        <mxPoint x="262" y="46" as="targetPoint"/>
                    </mxGeometry>
                </mxCell>
                <mxCell id="gzdv8FFXtKBTtcGOgYej-5" style="edgeStyle=orthogonalEdgeStyle;rounded=0;html=1;exitX=0;exitY=0.75;exitDx=0;exitDy=0;exitPerimeter=0;strokeWidth=3;endArrow=oval;endFill=1;" parent="gzdv8FFXtKBTtcGOgYej-1" source="gzdv8FFXtKBTtcGOgYej-6" edge="1">
                    <mxGeometry relative="1" as="geometry">
                        <mxPoint x="212" y="15.999999999999886" as="targetPoint"/>
                    </mxGeometry>
                </mxCell>
                <mxCell id="gzdv8FFXtKBTtcGOgYej-6" value="AND" style="verticalLabelPosition=middle;shadow=0;dashed=0;align=center;html=1;verticalAlign=middle;shape=mxgraph.electrical.logic_gates.logic_gate;operation=and;labelBackgroundColor=none;strokeColor=#000000;strokeWidth=3;fontColor=#000000;fillColor=none;labelPosition=center;fontStyle=1" parent="gzdv8FFXtKBTtcGOgYej-1" vertex="1">
                    <mxGeometry x="282" y="206" width="100" height="60" as="geometry"/>
                </mxCell>
                <mxCell id="gzdv8FFXtKBTtcGOgYej-7" value="OR" style="verticalLabelPosition=middle;shadow=0;dashed=0;align=center;html=1;verticalAlign=middle;shape=mxgraph.electrical.logic_gates.logic_gate;operation=or;labelBackgroundColor=none;strokeColor=#000000;strokeWidth=3;fontColor=#000000;fillColor=none;fontStyle=1;labelPosition=center;" parent="gzdv8FFXtKBTtcGOgYej-1" vertex="1">
                    <mxGeometry x="442" y="61" width="100" height="60" as="geometry"/>
                </mxCell>
                <mxCell id="gzdv8FFXtKBTtcGOgYej-8" style="edgeStyle=orthogonalEdgeStyle;rounded=0;html=1;exitX=1;exitY=0.5;exitDx=0;exitDy=0;exitPerimeter=0;entryX=0;entryY=0.25;entryDx=0;entryDy=0;entryPerimeter=0;strokeColor=#000000;strokeWidth=3;fontColor=#000000;startArrow=none;startFill=0;endArrow=none;endFill=0;" parent="gzdv8FFXtKBTtcGOgYej-1" source="gzdv8FFXtKBTtcGOgYej-6" target="gzdv8FFXtKBTtcGOgYej-7" edge="1">
                    <mxGeometry relative="1" as="geometry">
                        <Array as="points">
                            <mxPoint x="402" y="236"/>
                            <mxPoint x="402" y="76"/>
                        </Array>
                    </mxGeometry>
                </mxCell>
                <mxCell id="gzdv8FFXtKBTtcGOgYej-9" style="edgeStyle=orthogonalEdgeStyle;rounded=0;html=1;exitX=0;exitY=0.25;exitDx=0;exitDy=0;exitPerimeter=0;strokeWidth=3;endArrow=oval;endFill=1;" parent="gzdv8FFXtKBTtcGOgYej-1" source="gzdv8FFXtKBTtcGOgYej-12" edge="1">
                    <mxGeometry relative="1" as="geometry">
                        <mxPoint x="102" y="166" as="targetPoint"/>
                    </mxGeometry>
                </mxCell>
                <mxCell id="gzdv8FFXtKBTtcGOgYej-10" style="edgeStyle=orthogonalEdgeStyle;rounded=0;html=1;exitX=0;exitY=0.75;exitDx=0;exitDy=0;exitPerimeter=0;strokeWidth=3;endArrow=oval;endFill=1;" parent="gzdv8FFXtKBTtcGOgYej-1" source="gzdv8FFXtKBTtcGOgYej-12" edge="1">
                    <mxGeometry relative="1" as="geometry">
                        <mxPoint x="72" y="136" as="targetPoint"/>
                    </mxGeometry>
                </mxCell>
                <mxCell id="gzdv8FFXtKBTtcGOgYej-11" style="edgeStyle=orthogonalEdgeStyle;rounded=0;html=1;exitX=1;exitY=0.5;exitDx=0;exitDy=0;exitPerimeter=0;entryX=0;entryY=0.75;entryDx=0;entryDy=0;entryPerimeter=0;strokeWidth=3;endArrow=none;endFill=0;" parent="gzdv8FFXtKBTtcGOgYej-1" source="gzdv8FFXtKBTtcGOgYej-12" target="gzdv8FFXtKBTtcGOgYej-7" edge="1">
                    <mxGeometry relative="1" as="geometry">
                        <Array as="points">
                            <mxPoint x="442" y="306"/>
                        </Array>
                    </mxGeometry>
                </mxCell>
                <mxCell id="gzdv8FFXtKBTtcGOgYej-12" value="AND" style="verticalLabelPosition=middle;shadow=0;dashed=0;align=center;html=1;verticalAlign=middle;shape=mxgraph.electrical.logic_gates.logic_gate;operation=and;labelBackgroundColor=none;strokeColor=#000000;strokeWidth=3;fontColor=#000000;fillColor=none;labelPosition=center;fontStyle=1" parent="gzdv8FFXtKBTtcGOgYej-1" vertex="1">
                    <mxGeometry x="122" y="276" width="100" height="60" as="geometry"/>
                </mxCell>
                <mxCell id="gzdv8FFXtKBTtcGOgYej-13" style="edgeStyle=orthogonalEdgeStyle;rounded=0;html=1;exitX=1;exitY=0.5;exitDx=0;exitDy=0;exitPerimeter=0;strokeWidth=3;endArrow=none;endFill=0;" parent="gzdv8FFXtKBTtcGOgYej-1" source="gzdv8FFXtKBTtcGOgYej-15" edge="1">
                    <mxGeometry relative="1" as="geometry">
                        <mxPoint x="541.9999999999998" y="30.470588235294144" as="targetPoint"/>
                    </mxGeometry>
                </mxCell>
                <mxCell id="gzdv8FFXtKBTtcGOgYej-14" style="edgeStyle=orthogonalEdgeStyle;rounded=0;html=1;exitX=0;exitY=0.25;exitDx=0;exitDy=0;exitPerimeter=0;strokeWidth=3;endArrow=none;endFill=0;" parent="gzdv8FFXtKBTtcGOgYej-1" source="gzdv8FFXtKBTtcGOgYej-15" edge="1">
                    <mxGeometry relative="1" as="geometry">
                        <mxPoint x="52" y="16.35294117647061" as="targetPoint"/>
                    </mxGeometry>
                </mxCell>
                <mxCell id="gzdv8FFXtKBTtcGOgYej-15" value="XOR" style="verticalLabelPosition=middle;shadow=0;dashed=0;align=center;html=1;verticalAlign=middle;shape=mxgraph.electrical.logic_gates.logic_gate;operation=xor;labelBackgroundColor=none;strokeColor=#000000;strokeWidth=3;fontColor=#000000;fillColor=none;fontStyle=1;labelPosition=center;" parent="gzdv8FFXtKBTtcGOgYej-1" vertex="1">
                    <mxGeometry x="282" y="1" width="100" height="60" as="geometry"/>
                </mxCell>
                <mxCell id="gzdv8FFXtKBTtcGOgYej-16" style="edgeStyle=orthogonalEdgeStyle;rounded=0;html=1;exitX=1;exitY=0.5;exitDx=0;exitDy=0;exitPerimeter=0;entryX=0;entryY=0.75;entryDx=0;entryDy=0;entryPerimeter=0;strokeWidth=3;endArrow=none;endFill=0;" parent="gzdv8FFXtKBTtcGOgYej-1" source="gzdv8FFXtKBTtcGOgYej-3" target="gzdv8FFXtKBTtcGOgYej-15" edge="1">
                    <mxGeometry relative="1" as="geometry">
                        <Array as="points">
                            <mxPoint x="242" y="150"/>
                            <mxPoint x="242" y="46"/>
                        </Array>
                    </mxGeometry>
                </mxCell>
                <mxCell id="gzdv8FFXtKBTtcGOgYej-17" value="Cin" style="text;html=1;strokeColor=none;fillColor=none;align=center;verticalAlign=middle;whiteSpace=wrap;rounded=0;fontStyle=1;fontSize=25;" parent="gzdv8FFXtKBTtcGOgYej-1" vertex="1">
                    <mxGeometry width="60" height="30" as="geometry"/>
                </mxCell>
                <mxCell id="gzdv8FFXtKBTtcGOgYej-18" value="A" style="text;html=1;strokeColor=none;fillColor=none;align=center;verticalAlign=middle;whiteSpace=wrap;rounded=0;fontStyle=1;fontSize=25;" parent="gzdv8FFXtKBTtcGOgYej-1" vertex="1">
                    <mxGeometry y="120" width="60" height="30" as="geometry"/>
                </mxCell>
                <mxCell id="gzdv8FFXtKBTtcGOgYej-19" value="" style="edgeStyle=orthogonalEdgeStyle;rounded=0;html=1;exitX=0;exitY=0.75;exitDx=0;exitDy=0;exitPerimeter=0;strokeWidth=3;endArrow=none;endFill=0;" parent="gzdv8FFXtKBTtcGOgYej-1" source="gzdv8FFXtKBTtcGOgYej-3" target="gzdv8FFXtKBTtcGOgYej-20" edge="1">
                    <mxGeometry relative="1" as="geometry">
                        <mxPoint x="52" y="165.1034482758621" as="targetPoint"/>
                        <mxPoint x="122" y="165" as="sourcePoint"/>
                    </mxGeometry>
                </mxCell>
                <mxCell id="gzdv8FFXtKBTtcGOgYej-20" value="&lt;span style=&quot;&quot;&gt;B&lt;/span&gt;" style="text;html=1;strokeColor=none;fillColor=none;align=center;verticalAlign=middle;whiteSpace=wrap;rounded=0;fontStyle=1;fontSize=25;" parent="gzdv8FFXtKBTtcGOgYej-1" vertex="1">
                    <mxGeometry y="150" width="60" height="30" as="geometry"/>
                </mxCell>
                <mxCell id="gzdv8FFXtKBTtcGOgYej-21" value="S" style="text;html=1;strokeColor=none;fillColor=none;align=center;verticalAlign=middle;whiteSpace=wrap;rounded=0;fontStyle=1;fontSize=25;" parent="gzdv8FFXtKBTtcGOgYej-1" vertex="1">
                    <mxGeometry x="529" y="15" width="60" height="30" as="geometry"/>
                </mxCell>
                <mxCell id="gzdv8FFXtKBTtcGOgYej-22" value="Cout" style="text;html=1;strokeColor=none;fillColor=none;align=center;verticalAlign=middle;whiteSpace=wrap;rounded=0;fontStyle=1;fontSize=25;" parent="gzdv8FFXtKBTtcGOgYej-1" vertex="1">
                    <mxGeometry x="549" y="76" width="60" height="30" as="geometry"/>
                </mxCell>
                <mxCell id="gzdv8FFXtKBTtcGOgYej-23" value="" style="group" parent="1" vertex="1" connectable="0">
                    <mxGeometry x="100" y="80" width="100" height="183" as="geometry"/>
                </mxCell>
                <mxCell id="wTAwAFIw4sOWHSdyWEut-2" style="edgeStyle=none;html=1;exitX=0.25;exitY=0;exitDx=0;exitDy=0;fontColor=#000000;startArrow=block;startFill=1;endArrow=none;endFill=0;strokeColor=#000000;rounded=0;strokeWidth=2;" parent="gzdv8FFXtKBTtcGOgYej-23" source="wTAwAFIw4sOWHSdyWEut-1" edge="1">
                    <mxGeometry relative="1" as="geometry">
                        <mxPoint x="30" y="22" as="targetPoint"/>
                    </mxGeometry>
                </mxCell>
                <mxCell id="wTAwAFIw4sOWHSdyWEut-3" style="edgeStyle=none;html=1;exitX=0.5;exitY=0;exitDx=0;exitDy=0;fontColor=#000000;endArrow=none;rounded=0;strokeColor=#000000;startArrow=block;startFill=1;endFill=0;strokeWidth=2;" parent="gzdv8FFXtKBTtcGOgYej-23" source="wTAwAFIw4sOWHSdyWEut-1" edge="1">
                    <mxGeometry relative="1" as="geometry">
                        <mxPoint x="50" y="22" as="targetPoint"/>
                    </mxGeometry>
                </mxCell>
                <mxCell id="wTAwAFIw4sOWHSdyWEut-4" style="edgeStyle=none;html=1;exitX=0.75;exitY=0;exitDx=0;exitDy=0;fontColor=#000000;endArrow=none;rounded=0;strokeColor=#000000;startArrow=block;startFill=1;endFill=0;strokeWidth=2;" parent="gzdv8FFXtKBTtcGOgYej-23" source="wTAwAFIw4sOWHSdyWEut-1" edge="1">
                    <mxGeometry relative="1" as="geometry">
                        <mxPoint x="70" y="22" as="targetPoint"/>
                    </mxGeometry>
                </mxCell>
                <mxCell id="wTAwAFIw4sOWHSdyWEut-5" style="edgeStyle=none;rounded=0;html=1;exitX=0.25;exitY=1;exitDx=0;exitDy=0;strokeColor=#000000;fontColor=#000000;startArrow=none;startFill=0;endArrow=block;endFill=1;strokeWidth=2;" parent="gzdv8FFXtKBTtcGOgYej-23" source="wTAwAFIw4sOWHSdyWEut-1" edge="1">
                    <mxGeometry relative="1" as="geometry">
                        <mxPoint x="30" y="162" as="targetPoint"/>
                    </mxGeometry>
                </mxCell>
                <mxCell id="wTAwAFIw4sOWHSdyWEut-6" style="edgeStyle=none;rounded=0;html=1;exitX=0.75;exitY=1;exitDx=0;exitDy=0;strokeColor=#000000;fontColor=#000000;startArrow=none;startFill=0;endArrow=block;endFill=1;strokeWidth=2;" parent="gzdv8FFXtKBTtcGOgYej-23" source="wTAwAFIw4sOWHSdyWEut-1" edge="1">
                    <mxGeometry relative="1" as="geometry">
                        <mxPoint x="70" y="162" as="targetPoint"/>
                    </mxGeometry>
                </mxCell>
                <mxCell id="wTAwAFIw4sOWHSdyWEut-1" value="FA" style="whiteSpace=wrap;html=1;aspect=fixed;fillColor=none;strokeColor=#000000;strokeWidth=3;fontColor=#000000;fontStyle=1" parent="gzdv8FFXtKBTtcGOgYej-23" vertex="1">
                    <mxGeometry x="10" y="52" width="80" height="80" as="geometry"/>
                </mxCell>
                <mxCell id="wTAwAFIw4sOWHSdyWEut-7" value="A" style="text;html=1;strokeColor=none;fillColor=none;align=center;verticalAlign=middle;whiteSpace=wrap;rounded=0;labelBackgroundColor=none;strokeWidth=3;fontColor=#000000;fontStyle=1" parent="gzdv8FFXtKBTtcGOgYej-23" vertex="1">
                    <mxGeometry width="60" height="30" as="geometry"/>
                </mxCell>
                <mxCell id="wTAwAFIw4sOWHSdyWEut-8" value="B" style="text;html=1;strokeColor=none;fillColor=none;align=center;verticalAlign=middle;whiteSpace=wrap;rounded=0;labelBackgroundColor=none;strokeWidth=3;fontColor=#000000;fontStyle=1" parent="gzdv8FFXtKBTtcGOgYej-23" vertex="1">
                    <mxGeometry x="20" width="60" height="30" as="geometry"/>
                </mxCell>
                <mxCell id="wTAwAFIw4sOWHSdyWEut-9" value="Cin" style="text;html=1;strokeColor=none;fillColor=none;align=center;verticalAlign=middle;whiteSpace=wrap;rounded=0;labelBackgroundColor=none;strokeWidth=3;fontColor=#000000;fontStyle=1" parent="gzdv8FFXtKBTtcGOgYej-23" vertex="1">
                    <mxGeometry x="40" width="60" height="30" as="geometry"/>
                </mxCell>
                <mxCell id="wTAwAFIw4sOWHSdyWEut-10" value="S" style="text;html=1;strokeColor=none;fillColor=none;align=center;verticalAlign=middle;whiteSpace=wrap;rounded=0;labelBackgroundColor=none;strokeWidth=3;fontColor=#000000;fontStyle=1" parent="gzdv8FFXtKBTtcGOgYej-23" vertex="1">
                    <mxGeometry y="153" width="60" height="30" as="geometry"/>
                </mxCell>
                <mxCell id="wTAwAFIw4sOWHSdyWEut-11" value="Cout" style="text;html=1;strokeColor=none;fillColor=none;align=center;verticalAlign=middle;whiteSpace=wrap;rounded=0;labelBackgroundColor=none;strokeWidth=3;fontColor=#000000;fontStyle=1" parent="gzdv8FFXtKBTtcGOgYej-23" vertex="1">
                    <mxGeometry x="40" y="153" width="60" height="30" as="geometry"/>
                </mxCell>
            </root>
        </mxGraphModel>
    </diagram>
    <diagram id="E8JmcAeOklZgZ2l8eJsL" name="多路数据选择器">
        <mxGraphModel dx="696" dy="571" grid="1" gridSize="10" guides="1" tooltips="1" connect="1" arrows="1" fold="1" page="1" pageScale="1" pageWidth="1169" pageHeight="827" math="0" shadow="0">
            <root>
                <mxCell id="0"/>
                <mxCell id="1" parent="0"/>
                <mxCell id="uB0_w7AT7cy0_k-z_mVM-15" value="" style="group" parent="1" vertex="1" connectable="0">
                    <mxGeometry x="47" y="90" width="326" height="195" as="geometry"/>
                </mxCell>
                <mxCell id="uB0_w7AT7cy0_k-z_mVM-1" value="MUX" style="shape=trapezoid;perimeter=trapezoidPerimeter;whiteSpace=wrap;html=1;fixedSize=1;rotation=90;strokeWidth=3;fontStyle=1;fontSize=22;" parent="uB0_w7AT7cy0_k-z_mVM-15" vertex="1">
                    <mxGeometry x="103" y="30" width="120" height="60" as="geometry"/>
                </mxCell>
                <mxCell id="uB0_w7AT7cy0_k-z_mVM-2" value="" style="endArrow=blockThin;html=1;rounded=0;strokeColor=#000000;fontFamily=Helvetica;fontSize=15;fontColor=#000000;endFill=1;strokeWidth=3;" parent="uB0_w7AT7cy0_k-z_mVM-15" edge="1">
                    <mxGeometry width="50" height="50" relative="1" as="geometry">
                        <mxPoint x="63" y="16" as="sourcePoint"/>
                        <mxPoint x="133" y="16" as="targetPoint"/>
                    </mxGeometry>
                </mxCell>
                <mxCell id="uB0_w7AT7cy0_k-z_mVM-3" value="" style="endArrow=blockThin;html=1;rounded=0;strokeColor=#000000;fontFamily=Helvetica;fontSize=15;fontColor=#000000;endFill=1;strokeWidth=3;" parent="uB0_w7AT7cy0_k-z_mVM-15" edge="1">
                    <mxGeometry width="50" height="50" relative="1" as="geometry">
                        <mxPoint x="63" y="45" as="sourcePoint"/>
                        <mxPoint x="132.99999999999994" y="45" as="targetPoint"/>
                    </mxGeometry>
                </mxCell>
                <mxCell id="uB0_w7AT7cy0_k-z_mVM-4" value="" style="endArrow=blockThin;html=1;rounded=0;strokeColor=#000000;fontFamily=Helvetica;fontSize=15;fontColor=#000000;endFill=1;strokeWidth=3;" parent="uB0_w7AT7cy0_k-z_mVM-15" edge="1">
                    <mxGeometry width="50" height="50" relative="1" as="geometry">
                        <mxPoint x="63" y="72" as="sourcePoint"/>
                        <mxPoint x="132.99999999999994" y="72" as="targetPoint"/>
                    </mxGeometry>
                </mxCell>
                <mxCell id="uB0_w7AT7cy0_k-z_mVM-5" value="" style="endArrow=blockThin;html=1;rounded=0;strokeColor=#000000;fontFamily=Helvetica;fontSize=15;fontColor=#000000;endFill=1;strokeWidth=3;" parent="uB0_w7AT7cy0_k-z_mVM-15" edge="1">
                    <mxGeometry width="50" height="50" relative="1" as="geometry">
                        <mxPoint x="63" y="100" as="sourcePoint"/>
                        <mxPoint x="132.99999999999994" y="100" as="targetPoint"/>
                    </mxGeometry>
                </mxCell>
                <mxCell id="uB0_w7AT7cy0_k-z_mVM-7" value="" style="endArrow=blockThin;html=1;rounded=0;strokeColor=#000000;fontFamily=Helvetica;fontSize=15;fontColor=#000000;endFill=1;strokeWidth=3;" parent="uB0_w7AT7cy0_k-z_mVM-15" edge="1">
                    <mxGeometry width="50" height="50" relative="1" as="geometry">
                        <mxPoint x="193" y="59.81" as="sourcePoint"/>
                        <mxPoint x="262.99999999999994" y="59.81" as="targetPoint"/>
                    </mxGeometry>
                </mxCell>
                <mxCell id="uB0_w7AT7cy0_k-z_mVM-8" value="" style="endArrow=blockThin;html=1;rounded=0;strokeColor=#000000;fontFamily=Helvetica;fontSize=15;fontColor=#000000;endFill=1;strokeWidth=3;entryX=1;entryY=0.5;entryDx=0;entryDy=0;" parent="uB0_w7AT7cy0_k-z_mVM-15" target="uB0_w7AT7cy0_k-z_mVM-1" edge="1">
                    <mxGeometry width="50" height="50" relative="1" as="geometry">
                        <mxPoint x="163" y="170" as="sourcePoint"/>
                        <mxPoint x="197.99999999999994" y="150" as="targetPoint"/>
                    </mxGeometry>
                </mxCell>
                <mxCell id="uB0_w7AT7cy0_k-z_mVM-9" value="[7:0] A" style="text;html=1;align=center;verticalAlign=middle;resizable=0;points=[];autosize=1;strokeColor=none;fillColor=none;fontSize=15;fontStyle=1" parent="uB0_w7AT7cy0_k-z_mVM-15" vertex="1">
                    <mxGeometry width="70" height="30" as="geometry"/>
                </mxCell>
                <mxCell id="uB0_w7AT7cy0_k-z_mVM-10" value="[7:0] B" style="text;html=1;align=center;verticalAlign=middle;resizable=0;points=[];autosize=1;strokeColor=none;fillColor=none;fontSize=15;fontStyle=1" parent="uB0_w7AT7cy0_k-z_mVM-15" vertex="1">
                    <mxGeometry y="30" width="70" height="30" as="geometry"/>
                </mxCell>
                <mxCell id="uB0_w7AT7cy0_k-z_mVM-11" value="[7:0] C" style="text;html=1;align=center;verticalAlign=middle;resizable=0;points=[];autosize=1;strokeColor=none;fillColor=none;fontSize=15;fontStyle=1" parent="uB0_w7AT7cy0_k-z_mVM-15" vertex="1">
                    <mxGeometry y="57" width="70" height="30" as="geometry"/>
                </mxCell>
                <mxCell id="uB0_w7AT7cy0_k-z_mVM-12" value="[7:0] D" style="text;html=1;align=center;verticalAlign=middle;resizable=0;points=[];autosize=1;strokeColor=none;fillColor=none;fontSize=15;fontStyle=1" parent="uB0_w7AT7cy0_k-z_mVM-15" vertex="1">
                    <mxGeometry y="84" width="70" height="30" as="geometry"/>
                </mxCell>
                <mxCell id="uB0_w7AT7cy0_k-z_mVM-13" value="[7:0] Y" style="text;html=1;align=center;verticalAlign=middle;resizable=0;points=[];autosize=1;strokeColor=none;fillColor=none;fontSize=15;fontStyle=1" parent="uB0_w7AT7cy0_k-z_mVM-15" vertex="1">
                    <mxGeometry x="256" y="44" width="70" height="30" as="geometry"/>
                </mxCell>
                <mxCell id="uB0_w7AT7cy0_k-z_mVM-14" value="[1:0] S" style="text;html=1;align=center;verticalAlign=middle;resizable=0;points=[];autosize=1;strokeColor=none;fillColor=none;fontSize=15;fontStyle=1" parent="uB0_w7AT7cy0_k-z_mVM-15" vertex="1">
                    <mxGeometry x="128" y="165" width="70" height="30" as="geometry"/>
                </mxCell>
            </root>
        </mxGraphModel>
    </diagram>
    <diagram id="AdvlFsg3ZpSJXzzAPVCX" name="译码器">
        <mxGraphModel dx="480" dy="394" grid="1" gridSize="10" guides="1" tooltips="1" connect="1" arrows="1" fold="1" page="1" pageScale="1" pageWidth="1169" pageHeight="827" math="1" shadow="0">
            <root>
                <mxCell id="0"/>
                <mxCell id="1" parent="0"/>
                <mxCell id="8LwFoKWnl6urZ68ISw2w-2" style="edgeStyle=none;html=1;exitX=0;exitY=0.25;exitDx=0;exitDy=0;fontSize=18;strokeWidth=3;rounded=0;endArrow=none;endFill=0;" edge="1" parent="1" source="8LwFoKWnl6urZ68ISw2w-1">
                    <mxGeometry relative="1" as="geometry">
                        <mxPoint x="210" y="198" as="targetPoint"/>
                    </mxGeometry>
                </mxCell>
                <mxCell id="8LwFoKWnl6urZ68ISw2w-3" style="edgeStyle=none;rounded=0;html=1;exitX=0;exitY=0.5;exitDx=0;exitDy=0;strokeWidth=3;fontSize=18;endArrow=none;endFill=0;" edge="1" parent="1" source="8LwFoKWnl6urZ68ISw2w-1">
                    <mxGeometry relative="1" as="geometry">
                        <mxPoint x="210" y="239.8571428571429" as="targetPoint"/>
                    </mxGeometry>
                </mxCell>
                <mxCell id="8LwFoKWnl6urZ68ISw2w-4" style="edgeStyle=none;rounded=0;html=1;exitX=0;exitY=0.75;exitDx=0;exitDy=0;strokeWidth=3;fontSize=18;endArrow=none;endFill=0;" edge="1" parent="1" source="8LwFoKWnl6urZ68ISw2w-1">
                    <mxGeometry relative="1" as="geometry">
                        <mxPoint x="210" y="282.71428571428567" as="targetPoint"/>
                    </mxGeometry>
                </mxCell>
                <mxCell id="8LwFoKWnl6urZ68ISw2w-1" value="Decoder" style="rounded=0;whiteSpace=wrap;html=1;strokeWidth=3;fontStyle=1;fontSize=18;" vertex="1" parent="1">
                    <mxGeometry x="300" y="155" width="120" height="170" as="geometry"/>
                </mxCell>
                <mxCell id="8LwFoKWnl6urZ68ISw2w-10" style="edgeStyle=none;html=1;exitX=0;exitY=0.25;exitDx=0;exitDy=0;fontSize=18;strokeWidth=3;rounded=0;endArrow=none;endFill=0;" edge="1" parent="1">
                    <mxGeometry relative="1" as="geometry">
                        <mxPoint x="420" y="230.5" as="targetPoint"/>
                        <mxPoint x="510" y="230" as="sourcePoint"/>
                    </mxGeometry>
                </mxCell>
                <mxCell id="8LwFoKWnl6urZ68ISw2w-11" style="edgeStyle=none;html=1;exitX=0;exitY=0.25;exitDx=0;exitDy=0;fontSize=18;strokeWidth=3;rounded=0;endArrow=none;endFill=0;" edge="1" parent="1">
                    <mxGeometry relative="1" as="geometry">
                        <mxPoint x="420" y="250.5" as="targetPoint"/>
                        <mxPoint x="510" y="250" as="sourcePoint"/>
                    </mxGeometry>
                </mxCell>
                <mxCell id="8LwFoKWnl6urZ68ISw2w-12" style="edgeStyle=none;html=1;exitX=0;exitY=0.25;exitDx=0;exitDy=0;fontSize=18;strokeWidth=3;rounded=0;endArrow=none;endFill=0;" edge="1" parent="1">
                    <mxGeometry relative="1" as="geometry">
                        <mxPoint x="420" y="210.5" as="targetPoint"/>
                        <mxPoint x="510" y="210" as="sourcePoint"/>
                    </mxGeometry>
                </mxCell>
                <mxCell id="8LwFoKWnl6urZ68ISw2w-13" style="edgeStyle=none;html=1;exitX=0;exitY=0.25;exitDx=0;exitDy=0;fontSize=18;strokeWidth=3;rounded=0;endArrow=none;endFill=0;" edge="1" parent="1">
                    <mxGeometry relative="1" as="geometry">
                        <mxPoint x="420" y="270.5" as="targetPoint"/>
                        <mxPoint x="510" y="270" as="sourcePoint"/>
                    </mxGeometry>
                </mxCell>
                <mxCell id="8LwFoKWnl6urZ68ISw2w-14" style="edgeStyle=none;html=1;exitX=0;exitY=0.25;exitDx=0;exitDy=0;fontSize=18;strokeWidth=3;rounded=0;endArrow=none;endFill=0;" edge="1" parent="1">
                    <mxGeometry relative="1" as="geometry">
                        <mxPoint x="420" y="190.5" as="targetPoint"/>
                        <mxPoint x="510" y="190" as="sourcePoint"/>
                    </mxGeometry>
                </mxCell>
                <mxCell id="8LwFoKWnl6urZ68ISw2w-15" style="edgeStyle=none;html=1;exitX=0;exitY=0.25;exitDx=0;exitDy=0;fontSize=18;strokeWidth=3;rounded=0;endArrow=none;endFill=0;" edge="1" parent="1">
                    <mxGeometry relative="1" as="geometry">
                        <mxPoint x="420" y="290.5" as="targetPoint"/>
                        <mxPoint x="510" y="290" as="sourcePoint"/>
                    </mxGeometry>
                </mxCell>
                <mxCell id="8LwFoKWnl6urZ68ISw2w-16" style="edgeStyle=none;html=1;exitX=0;exitY=0.25;exitDx=0;exitDy=0;fontSize=18;strokeWidth=3;rounded=0;endArrow=none;endFill=0;" edge="1" parent="1">
                    <mxGeometry relative="1" as="geometry">
                        <mxPoint x="420" y="310.5" as="targetPoint"/>
                        <mxPoint x="510" y="310" as="sourcePoint"/>
                    </mxGeometry>
                </mxCell>
                <mxCell id="8LwFoKWnl6urZ68ISw2w-17" style="edgeStyle=none;html=1;exitX=0;exitY=0.25;exitDx=0;exitDy=0;fontSize=18;strokeWidth=3;rounded=0;endArrow=none;endFill=0;" edge="1" parent="1">
                    <mxGeometry relative="1" as="geometry">
                        <mxPoint x="420" y="170.5" as="targetPoint"/>
                        <mxPoint x="510" y="170" as="sourcePoint"/>
                    </mxGeometry>
                </mxCell>
                <mxCell id="8LwFoKWnl6urZ68ISw2w-18" value="$$A$$" style="text;html=1;align=center;verticalAlign=middle;resizable=0;points=[];autosize=1;strokeColor=none;fillColor=none;fontSize=18;fontStyle=1" vertex="1" parent="1">
                    <mxGeometry x="152" y="177" width="80" height="40" as="geometry"/>
                </mxCell>
                <mxCell id="8LwFoKWnl6urZ68ISw2w-19" value="$$B$$" style="text;html=1;align=center;verticalAlign=middle;resizable=0;points=[];autosize=1;strokeColor=none;fillColor=none;fontSize=18;fontStyle=1" vertex="1" parent="1">
                    <mxGeometry x="152" y="219" width="80" height="40" as="geometry"/>
                </mxCell>
                <mxCell id="8LwFoKWnl6urZ68ISw2w-20" value="$$C$$" style="text;html=1;align=center;verticalAlign=middle;resizable=0;points=[];autosize=1;strokeColor=none;fillColor=none;fontSize=18;fontStyle=1" vertex="1" parent="1">
                    <mxGeometry x="152" y="263" width="80" height="40" as="geometry"/>
                </mxCell>
                <mxCell id="8LwFoKWnl6urZ68ISw2w-21" value="$$Y_0$$" style="text;html=1;align=center;verticalAlign=middle;resizable=0;points=[];autosize=1;strokeColor=none;fillColor=none;fontSize=18;fontStyle=1" vertex="1" parent="1">
                    <mxGeometry x="485" y="150" width="100" height="40" as="geometry"/>
                </mxCell>
                <mxCell id="8LwFoKWnl6urZ68ISw2w-22" value="$$Y_1$$" style="text;html=1;align=center;verticalAlign=middle;resizable=0;points=[];autosize=1;strokeColor=none;fillColor=none;fontSize=18;fontStyle=1" vertex="1" parent="1">
                    <mxGeometry x="485" y="170" width="100" height="40" as="geometry"/>
                </mxCell>
                <mxCell id="8LwFoKWnl6urZ68ISw2w-23" value="$$Y_2$$" style="text;html=1;align=center;verticalAlign=middle;resizable=0;points=[];autosize=1;strokeColor=none;fillColor=none;fontSize=18;fontStyle=1" vertex="1" parent="1">
                    <mxGeometry x="485" y="190" width="100" height="40" as="geometry"/>
                </mxCell>
                <mxCell id="8LwFoKWnl6urZ68ISw2w-24" value="$$Y_3$$" style="text;html=1;align=center;verticalAlign=middle;resizable=0;points=[];autosize=1;strokeColor=none;fillColor=none;fontSize=18;fontStyle=1" vertex="1" parent="1">
                    <mxGeometry x="485" y="210" width="100" height="40" as="geometry"/>
                </mxCell>
                <mxCell id="8LwFoKWnl6urZ68ISw2w-25" value="$$Y_4$$" style="text;html=1;align=center;verticalAlign=middle;resizable=0;points=[];autosize=1;strokeColor=none;fillColor=none;fontSize=18;fontStyle=1" vertex="1" parent="1">
                    <mxGeometry x="485" y="230" width="100" height="40" as="geometry"/>
                </mxCell>
                <mxCell id="8LwFoKWnl6urZ68ISw2w-26" value="$$Y_5$$" style="text;html=1;align=center;verticalAlign=middle;resizable=0;points=[];autosize=1;strokeColor=none;fillColor=none;fontSize=18;fontStyle=1" vertex="1" parent="1">
                    <mxGeometry x="485" y="250" width="100" height="40" as="geometry"/>
                </mxCell>
                <mxCell id="8LwFoKWnl6urZ68ISw2w-27" value="$$Y_6$$" style="text;html=1;align=center;verticalAlign=middle;resizable=0;points=[];autosize=1;strokeColor=none;fillColor=none;fontSize=18;fontStyle=1" vertex="1" parent="1">
                    <mxGeometry x="485" y="270" width="100" height="40" as="geometry"/>
                </mxCell>
                <mxCell id="8LwFoKWnl6urZ68ISw2w-28" value="$$Y_7$$" style="text;html=1;align=center;verticalAlign=middle;resizable=0;points=[];autosize=1;strokeColor=none;fillColor=none;fontSize=18;fontStyle=1" vertex="1" parent="1">
                    <mxGeometry x="485" y="290" width="100" height="40" as="geometry"/>
                </mxCell>
            </root>
        </mxGraphModel>
    </diagram>
    <diagram id="X1Z5Mt0qpq97yQyyeKMR" name="加减法器">
        <mxGraphModel dx="696" dy="571" grid="1" gridSize="10" guides="1" tooltips="1" connect="1" arrows="1" fold="1" page="1" pageScale="1" pageWidth="1169" pageHeight="827" math="1" shadow="0">
            <root>
                <mxCell id="0"/>
                <mxCell id="1" parent="0"/>
                <mxCell id="U6ciwknIUaB1TWmNj2xK-3" style="edgeStyle=orthogonalEdgeStyle;html=1;exitX=0;exitY=0.25;exitDx=0;exitDy=0;fontColor=default;endArrow=block;endFill=1;strokeWidth=3;rounded=0;" parent="1" source="U6ciwknIUaB1TWmNj2xK-2" edge="1">
                    <mxGeometry relative="1" as="geometry">
                        <mxPoint x="220" y="298" as="targetPoint"/>
                    </mxGeometry>
                </mxCell>
                <mxCell id="U6ciwknIUaB1TWmNj2xK-4" style="edgeStyle=orthogonalEdgeStyle;rounded=0;html=1;exitX=0;exitY=0.5;exitDx=0;exitDy=0;strokeWidth=3;fontColor=default;endArrow=block;endFill=1;" parent="1" source="U6ciwknIUaB1TWmNj2xK-2" edge="1">
                    <mxGeometry relative="1" as="geometry">
                        <mxPoint x="220" y="335.1428571428571" as="targetPoint"/>
                    </mxGeometry>
                </mxCell>
                <mxCell id="U6ciwknIUaB1TWmNj2xK-5" style="edgeStyle=orthogonalEdgeStyle;rounded=0;html=1;exitX=0;exitY=0.75;exitDx=0;exitDy=0;strokeWidth=3;fontColor=default;endArrow=block;endFill=1;" parent="1" source="U6ciwknIUaB1TWmNj2xK-2" edge="1">
                    <mxGeometry relative="1" as="geometry">
                        <mxPoint x="220" y="372.28571428571433" as="targetPoint"/>
                    </mxGeometry>
                </mxCell>
                <mxCell id="U6ciwknIUaB1TWmNj2xK-6" style="edgeStyle=orthogonalEdgeStyle;rounded=0;html=1;exitX=1;exitY=0.25;exitDx=0;exitDy=0;strokeWidth=3;fontColor=default;endArrow=none;endFill=0;startArrow=block;startFill=1;" parent="1" source="U6ciwknIUaB1TWmNj2xK-2" edge="1">
                    <mxGeometry relative="1" as="geometry">
                        <mxPoint x="570" y="297.42857142857144" as="targetPoint"/>
                    </mxGeometry>
                </mxCell>
                <mxCell id="U6ciwknIUaB1TWmNj2xK-7" style="edgeStyle=orthogonalEdgeStyle;rounded=0;html=1;exitX=1;exitY=0.75;exitDx=0;exitDy=0;strokeWidth=3;fontColor=default;endArrow=none;endFill=0;startArrow=block;startFill=1;" parent="1" source="U6ciwknIUaB1TWmNj2xK-2" edge="1">
                    <mxGeometry relative="1" as="geometry">
                        <mxPoint x="570" y="372.28571428571433" as="targetPoint"/>
                    </mxGeometry>
                </mxCell>
                <mxCell id="U6ciwknIUaB1TWmNj2xK-2" value="&lt;span style=&quot;font-family: Arial, Helvetica, sans-serif; font-size: 14px; text-align: left; background-color: rgb(255, 255, 255);&quot;&gt;Adder&lt;/span&gt;&lt;span style=&quot;font-family: Arial, Helvetica, sans-serif; font-size: 14px; text-align: left; background-color: rgb(255, 255, 255);&quot;&gt;/Subtracter&lt;/span&gt;" style="whiteSpace=wrap;html=1;aspect=fixed;fontStyle=1;fontColor=default;strokeWidth=4;" parent="1" vertex="1">
                    <mxGeometry x="320" y="260" width="150" height="150" as="geometry"/>
                </mxCell>
                <mxCell id="U6ciwknIUaB1TWmNj2xK-9" value="" style="shape=flexArrow;endArrow=classic;html=1;rounded=0;strokeWidth=3;fontColor=default;exitX=0.5;exitY=0;exitDx=0;exitDy=0;" parent="1" edge="1">
                    <mxGeometry width="50" height="50" relative="1" as="geometry">
                        <mxPoint x="395" y="262" as="sourcePoint"/>
                        <mxPoint x="395" y="182" as="targetPoint"/>
                    </mxGeometry>
                </mxCell>
                <mxCell id="U6ciwknIUaB1TWmNj2xK-10" value="" style="shape=flexArrow;endArrow=classic;html=1;rounded=0;strokeWidth=3;fontColor=default;exitX=0.5;exitY=0;exitDx=0;exitDy=0;" parent="1" edge="1">
                    <mxGeometry width="50" height="50" relative="1" as="geometry">
                        <mxPoint x="370" y="490" as="sourcePoint"/>
                        <mxPoint x="370" y="410" as="targetPoint"/>
                    </mxGeometry>
                </mxCell>
                <mxCell id="U6ciwknIUaB1TWmNj2xK-11" value="" style="shape=flexArrow;endArrow=classic;html=1;rounded=0;strokeWidth=3;fontColor=default;exitX=0.5;exitY=0;exitDx=0;exitDy=0;" parent="1" edge="1">
                    <mxGeometry width="50" height="50" relative="1" as="geometry">
                        <mxPoint x="430" y="490" as="sourcePoint"/>
                        <mxPoint x="430" y="410" as="targetPoint"/>
                    </mxGeometry>
                </mxCell>
                <mxCell id="U6ciwknIUaB1TWmNj2xK-13" value="$$Cout$$" style="text;html=1;align=center;verticalAlign=middle;resizable=0;points=[];autosize=1;strokeColor=none;fillColor=none;fontColor=default;strokeWidth=1;fontStyle=1;fontSize=16;" parent="1" vertex="1">
                    <mxGeometry x="146" y="282" width="100" height="30" as="geometry"/>
                </mxCell>
                <mxCell id="U6ciwknIUaB1TWmNj2xK-15" value="$$Cin$$" style="text;html=1;align=center;verticalAlign=middle;resizable=0;points=[];autosize=1;strokeColor=none;fillColor=none;fontColor=default;strokeWidth=1;fontStyle=1;fontSize=16;" parent="1" vertex="1">
                    <mxGeometry x="548" y="280" width="80" height="30" as="geometry"/>
                </mxCell>
                <mxCell id="U6ciwknIUaB1TWmNj2xK-16" value="$$ZF$$" style="text;html=1;align=center;verticalAlign=middle;resizable=0;points=[];autosize=1;strokeColor=none;fillColor=none;fontColor=default;strokeWidth=1;fontStyle=1;fontSize=16;" parent="1" vertex="1">
                    <mxGeometry x="156" y="320" width="80" height="30" as="geometry"/>
                </mxCell>
                <mxCell id="U6ciwknIUaB1TWmNj2xK-17" value="$$CF$$" style="text;html=1;align=center;verticalAlign=middle;resizable=0;points=[];autosize=1;strokeColor=none;fillColor=none;fontColor=default;strokeWidth=1;fontStyle=1;fontSize=16;" parent="1" vertex="1">
                    <mxGeometry x="155" y="360" width="80" height="30" as="geometry"/>
                </mxCell>
                <mxCell id="U6ciwknIUaB1TWmNj2xK-19" value="$$\overline{Add}/Sub$$" style="text;html=1;align=center;verticalAlign=middle;resizable=0;points=[];autosize=1;strokeColor=none;fillColor=none;fontColor=default;strokeWidth=1;fontStyle=1;fontSize=16;" parent="1" vertex="1">
                    <mxGeometry x="512" y="357" width="200" height="30" as="geometry"/>
                </mxCell>
                <mxCell id="U6ciwknIUaB1TWmNj2xK-22" value="$$\left[3:0\right]\,A$$" style="text;html=1;align=center;verticalAlign=middle;resizable=0;points=[];autosize=1;strokeColor=none;fillColor=none;fontColor=default;strokeWidth=1;fontStyle=1;fontSize=16;" parent="1" vertex="1">
                    <mxGeometry x="270" y="492" width="180" height="30" as="geometry"/>
                </mxCell>
                <mxCell id="U6ciwknIUaB1TWmNj2xK-23" value="$$\left[3:0\right]\,B$$" style="text;html=1;align=center;verticalAlign=middle;resizable=0;points=[];autosize=1;strokeColor=none;fillColor=none;fontColor=default;strokeWidth=1;fontStyle=1;fontSize=16;" parent="1" vertex="1">
                    <mxGeometry x="340" y="492" width="180" height="30" as="geometry"/>
                </mxCell>
                <mxCell id="U6ciwknIUaB1TWmNj2xK-24" value="$$\left[3:0\right]\,Y$$" style="text;html=1;align=center;verticalAlign=middle;resizable=0;points=[];autosize=1;strokeColor=none;fillColor=none;fontColor=default;strokeWidth=1;fontStyle=1;fontSize=16;" parent="1" vertex="1">
                    <mxGeometry x="300" y="150" width="180" height="30" as="geometry"/>
                </mxCell>
            </root>
        </mxGraphModel>
    </diagram>
</mxfile>